# xmcd
#
# Track frame offsets:
#	150
#	12407
#	25700
#	36010
#	46760
#	58965
#	73100
#	84920
#	97265
#	108632
#	120322
#	129982
#	142365
#	154615
#	164787
#	176490
#	187102
#	195447
#	208147
#	221250
#	233017
#	244030
#	255920
#	266885
#	278747
#	291760
#
# Disc length: 4014 seconds
#
# Revision: 4
# Processed by: cddbd v1.5.2PL0 Copyright (c) Steve Scherf et al.
# Submitted via: audiograbber 1.83.01
#
DISCID=7e0fac1a
DTITLE=Various Artist - The King R&B Box Set - King Records Rhythm And Blues  
DTITLE=(CD3)
DYEAR=1995
DGENRE=Oldies
TTITLE0=Earl 'Connelly' King - Don't Take It So Hard
TTITLE1=Little Willie John - All Around The World
TTITLE2=Otis Williams and His Charms - Ivory Tower
TTITLE3=Billy Gayles - I'm Tore Up
TTITLE4=Little Willie John - Fever
TTITLE5=Billy Doggett - Honky Tonk - Part 1
TTITLE6=Billy Doggett - Honky Tonk - Part 2
TTITLE7=Annie Laurie - It Hurts To Be In Love
TTITLE8=Billy Doggett - Ram-Bunk-Shush
TTITLE9='5' Royales - Think
TTITLE10=Tiny Topsy - Miss You So
TTITLE11='5' Royales - Dedicated To The One I Love
TTITLE12=Little Willie John - Talk To Me, Talk To Me
TTITLE13=Chanters - No, No, No
TTITLE14=Hank Ballard - The Twist
TTITLE15=Teddy Humphries - What Makes You So Tough?
TTITLE16=Hank Ballard - Finger Poppin' Time
TTITLE17=Smokey Smothers - Come On Rock, Little Girl
TTITLE18=Little Willie John - Sleep
TTITLE19=Freddy King - Hide Away
TTITLE20=Hank Ballard - Let's Go, Let's Go, Let's Go
TTITLE21=Freddy King - I'm Tore Down
TTITLE22=King Pins - It Won't Be This Way (Always)
TTITLE23=Freddy King - San-Ho-Zay
TTITLE24=Johnny 'Guitar' Watson - Gangster Of Love
TTITLE25=James Brown - Papa's Got A Brand New Bag - Part 1
EXTD=
EXTT0=
EXTT1=
EXTT2=
EXTT3=
EXTT4=
EXTT5=
EXTT6=
EXTT7=
EXTT8=
EXTT9=
EXTT10=
EXTT11=
EXTT12=
EXTT13=
EXTT14=
EXTT15=
EXTT16=
EXTT17=
EXTT18=
EXTT19=
EXTT20=
EXTT21=
EXTT22=
EXTT23=
EXTT24=
EXTT25=
PLAYORDER=
